/* XPM */
static char * mail_notification_xpm[] = {
"22 22 144 2",
"  	c None",
". 	c #A40000",
"+ 	c #9B0000",
"@ 	c #A50000",
"# 	c #A30000",
"$ 	c #DD6F6F",
"% 	c #FDAEAE",
"& 	c #FCABAB",
"* 	c #FCACAC",
"= 	c #FCAEAE",
"- 	c #CE5050",
"; 	c #9A0000",
"> 	c #FAA1A1",
", 	c #F25353",
"' 	c #F25656",
") 	c #F25555",
"! 	c #F25757",
"~ 	c #F35555",
"{ 	c #E88585",
"] 	c #EF7E7E",
"^ 	c #E42A2A",
"/ 	c #E63737",
"( 	c #E63B3B",
"_ 	c #E63939",
": 	c #E63535",
"< 	c #E32525",
"[ 	c #E06A6A",
"} 	c #930404",
"| 	c #D45757",
"1 	c #DD4949",
"2 	c #DD4747",
"3 	c #CA4848",
"4 	c #594F4C",
"5 	c #C14D4D",
"6 	c #A50202",
"7 	c #A60202",
"8 	c #A60101",
"9 	c #444742",
"0 	c #F7FFFE",
"a 	c #8A8D86",
"b 	c #5C5E59",
"c 	c #F2F2F2",
"d 	c #5F615D",
"e 	c #81837E",
"f 	c #898C86",
"g 	c #848780",
"h 	c #E8E9E8",
"i 	c #898A87",
"j 	c #F0F0F0",
"k 	c #A3A4A2",
"l 	c #FFFFFF",
"m 	c #EAEAE9",
"n 	c #838780",
"o 	c #7B7E78",
"p 	c #757773",
"q 	c #EFEFEE",
"r 	c #9D9E9B",
"s 	c #F8F8F7",
"t 	c #F7F7F6",
"u 	c #FCFCFB",
"v 	c #F9FAF9",
"w 	c #A4A5A1",
"x 	c #7B7D78",
"y 	c #8C8E8B",
"z 	c #EDEDEC",
"A 	c #9A9B99",
"B 	c #FBFBFA",
"C 	c #F6F6F5",
"D 	c #F6F6F6",
"E 	c #E1E1E0",
"F 	c #9EA09C",
"G 	c #F4F4F3",
"H 	c #8B8C89",
"I 	c #EBEBEB",
"J 	c #7A7B78",
"K 	c #C0C0BE",
"L 	c #F5F5F5",
"M 	c #B5B6B3",
"N 	c #C8C9C7",
"O 	c #F5F5F4",
"P 	c #8A8C88",
"Q 	c #E9E9E9",
"R 	c #9FA09D",
"S 	c #D1D2D0",
"T 	c #B9B9B7",
"U 	c #FAFAFA",
"V 	c #AFB0AD",
"W 	c #DEDEDC",
"X 	c #F3F3F2",
"Y 	c #8A8B88",
"Z 	c #E7E7E7",
"` 	c #9A9B98",
" .	c #D3D5D3",
"..	c #AEB0AC",
"+.	c #F5F4F4",
"@.	c #F9F9F8",
"#.	c #DFDFDD",
"$.	c #AEAFAD",
"%.	c #DFDFDE",
"&.	c #F2F2F1",
"*.	c #F1F1F1",
"=.	c #898A88",
"-.	c #E5E5E5",
";.	c #E5E6E5",
">.	c #CFD0CE",
",.	c #ADAFAB",
"'.	c #F1F1F0",
").	c #DFE0DF",
"!.	c #BDBEBB",
"~.	c #EFEFEF",
"{.	c #CFD0CD",
"].	c #E9EAE9",
"^.	c #FDFDFD",
"/.	c #91928F",
"(.	c #EAEAEA",
"_.	c #80817F",
":.	c #D5D6D5",
"<.	c #EDEDED",
"[.	c #BCBDBB",
"}.	c #CBCCCA",
"|.	c #D6D6D5",
"1.	c #D9DAD9",
"2.	c #EEEEEE",
"3.	c #F3F3F3",
"4.	c #979896",
"5.	c #8B8C8A",
"6.	c #E9E9E8",
"7.	c #E0E0DF",
"8.	c #CCCDCB",
"9.	c #7C7E79",
"0.	c #FCFCFD",
"a.	c #989A97",
"b.	c #A8A9A7",
"c.	c #8C8D8A",
"d.	c #ECECEC",
"e.	c #EEEEED",
"f.	c #E5E5E4",
"g.	c #CFCFCE",
"h.	c #81847E",
"i.	c #E4E4E2",
"j.	c #F4F4F4",
"k.	c #7F817C",
"l.	c #7F807C",
"m.	c #7F817B",
"                                            ",
"        . + + + + + + @                     ",
"      # $ % & & & * = - #                   ",
"      ; > , ' ) ' ! ~ { ;                   ",
"      + ] ^ / ( _ : < [ +                   ",
"      } | 1 2 2 2 2 1 3 }                   ",
"      4 5 . 6 6 6 6 7 8                     ",
"      9 0                                   ",
"    a b c d e e e e e e e e e e e e e f     ",
"  g h i j k l l l l l l l l l l l l l m n   ",
"  o l p q r s s s s s s s s s t u v w l x   ",
"  o l y z A B C C C C C C C D B E F G l o   ",
"  o l H I J K l L C C C C L l M N O O l o   ",
"  o l P Q R S T U O G G C s V W C X X l o   ",
"  o l Y Z ` L  ...+.O @.#.$.%.G &.c *.l o   ",
"  o l =.-.A ;.>.j ,.'.).!.~.{.].*.j j l o   ",
"  x ^./.(._.:.q ~.<.[.}.*.~.<.|.1.j 2.l o   ",
"  o 3.[.4.5.6.2.2.2.2.2.2.2.2.<.7.8.I l o   ",
"  9.0.a.b.c.(.d.d.d.d.d.d.d.d.d.e.f.g.l 9.  ",
"  h.i.^.j.^.l l l l l l l l l l l l l f.k.  ",
"    l.m.m.m.m.m.m.m.m.m.m.m.m.m.m.m.m.9.    ",
"                                            "};
