/* XPM */
static char * mail_notification_xpm[] = {
"32 32 171 2",
"  	c None",
". 	c #A90202",
"+ 	c #A50101",
"@ 	c #A40000",
"# 	c #D66161",
"$ 	c #F6A7A7",
"% 	c #F9AAAA",
"& 	c #F9ABAB",
"* 	c #D55F5F",
"= 	c #F59E9E",
"- 	c #F46666",
"; 	c #F36060",
"> 	c #F36161",
", 	c #F46767",
"' 	c #F59F9F",
") 	c #F89A9A",
"! 	c #F25353",
"~ 	c #F25454",
"{ 	c #F89999",
"] 	c #EF7F7F",
"^ 	c #E52D2D",
"/ 	c #E63535",
"( 	c #E73939",
"_ 	c #E73C3C",
": 	c #E73E3E",
"< 	c #E73B3B",
"[ 	c #E73838",
"} 	c #E52B2B",
"| 	c #EF7E7E",
"1 	c #A30101",
"2 	c #E47474",
"3 	c #D71E1E",
"4 	c #D61616",
"5 	c #A50000",
"6 	c #8D1F1E",
"7 	c #C33C3C",
"8 	c #DD6D6D",
"9 	c #DF7070",
"0 	c #C33B3B",
"a 	c #A60000",
"b 	c #63514E",
"c 	c #C15353",
"d 	c #5A5C58",
"e 	c #F5F5F5",
"f 	c #555753",
"g 	c #595B57",
"h 	c #F4F4F3",
"i 	c #8E918B",
"j 	c #8A8C86",
"k 	c #F3F3F3",
"l 	c #888A85",
"m 	c #8E918A",
"n 	c #D1D2D0",
"o 	c #FFFFFE",
"p 	c #5B5D59",
"q 	c #F2F2F2",
"r 	c #FFFFFF",
"s 	c #D4D5D3",
"t 	c #8D918A",
"u 	c #898B86",
"v 	c #FDFDFD",
"w 	c #A4A6A2",
"x 	c #F1F1F1",
"y 	c #F9F9F8",
"z 	c #FBFBFA",
"A 	c #B1B1AE",
"B 	c #898A86",
"C 	c #D3D4D2",
"D 	c #585A56",
"E 	c #F0F0EF",
"F 	c #F8F8F7",
"G 	c #FEFEFE",
"H 	c #EFF0EF",
"I 	c #959792",
"J 	c #C9C9C7",
"K 	c #F7F7F6",
"L 	c #EFEFEE",
"M 	c #D9D9D7",
"N 	c #959793",
"O 	c #DFE0DE",
"P 	c #F6F6F5",
"Q 	c #EEEEED",
"R 	c #C3C4C2",
"S 	c #F9F9F9",
"T 	c #F6F6F6",
"U 	c #FAFAFA",
"V 	c #BBBCB9",
"W 	c #A7A9A5",
"X 	c #F5F5F4",
"Y 	c #ECECEC",
"Z 	c #B7B8B5",
"` 	c #ADAEAB",
" .	c #FCFCFC",
"..	c #FCFCFB",
"+.	c #F8F8F8",
"@.	c #A1A29E",
"#.	c #BFC0BE",
"$.	c #EBEBEB",
"%.	c #CACBC9",
"&.	c #9E9F9B",
"*.	c #F7F7F7",
"=.	c #FBFBFB",
"-.	c #EBEBE9",
";.	c #979894",
">.	c #D7D7D5",
",.	c #F3F3F2",
"'.	c #E9E9E9",
").	c #DBDCDA",
"!.	c #979994",
"~.	c #ECEDEB",
"{.	c #A0A29E",
"].	c #E7E7E6",
"^.	c #E8E8E8",
"/.	c #EEEEEE",
"(.	c #C9CBC8",
"_.	c #999A96",
":.	c #DBDBDA",
"<.	c #FDFDFC",
"[.	c #B4B5B1",
"}.	c #A6A7A5",
"|.	c #D7D8D6",
"1.	c #E7E7E7",
"2.	c #E6E7E6",
"3.	c #CBCCCA",
"4.	c #DDDDDC",
"5.	c #EDEDED",
"6.	c #AEB0AC",
"7.	c #C4C5C3",
"8.	c #A1A29F",
"9.	c #CECFCD",
"0.	c #EFEFEF",
"a.	c #CFD0CE",
"b.	c #EAEBEA",
"c.	c #DFDFDE",
"d.	c #E6E6E6",
"e.	c #CFD1CF",
"f.	c #E5E5E4",
"g.	c #F0F0F0",
"h.	c #C3C4C1",
"i.	c #8F918D",
"j.	c #A3A5A1",
"k.	c #E0E0DF",
"l.	c #E0E0E0",
"m.	c #E1E1E0",
"n.	c #7D7E7C",
"o.	c #CDCDCC",
"p.	c #979896",
"q.	c #787977",
"r.	c #CCCDCB",
"s.	c #D5D6D4",
"t.	c #5C5E5A",
"u.	c #989997",
"v.	c #C8C9C8",
"w.	c #D5D5D4",
"x.	c #828380",
"y.	c #C4C5C4",
"z.	c #DEDEDD",
"A.	c #90918F",
"B.	c #838481",
"C.	c #C8C9C7",
"D.	c #8A8C87",
"E.	c #BDBEBB",
"F.	c #878885",
"G.	c #5E605C",
"H.	c #D5D6D5",
"I.	c #D1D1D0",
"J.	c #D5D5D3",
"K.	c #D6D6D5",
"L.	c #888985",
"M.	c #8B8D88",
"N.	c #858682",
"                                                                ",
"                                                                ",
"            . + @ @ @ @ @ @ @ + .                               ",
"          . # $ % % % % % & & $ * .                             ",
"          + = - ; ; ; ; ; ; > , ' +                             ",
"          @ ) ! ! ! ! ! ! ~ ~ ~ { @                             ",
"          @ ] ^ / ( _ : < [ / } | @                             ",
"          1 2 3 4 4 4 4 4 4 4 3 2 5                             ",
"          6 7 8 9 9 9 9 9 9 9 8 0 a                             ",
"          b c 1 @ @ @ @ @ @ @ 5 a                               ",
"          d e f                                                 ",
"          g h f                                                 ",
"      i j g k f l l l l l l l l l l l l l l l l l l l j i       ",
"    m n o p q f r r r r r r r r r r r r r r r r r r r r s t     ",
"    u v w d x f y y y y y y y y y y y y y y y y y v z A v B     ",
"    l r C D E f y F F F F F F F F F F F F F F y G H I J r l     ",
"    l r K d L f G y K K K K K K K K K K K K y G M N O K r l     ",
"    l r P d Q f R G S T T T T T T T T T T U v V W Q P P r l     ",
"    l r X d Y f Z `  .U P P P P P P P P ..+.@.#.h X X X r l     ",
"    l r h d $.f h %.&.*.=.X X X X X P v -.;.>.h h h h h r l     ",
"    l r ,.d '.f ,.,.).!.~. .X h h K v n {.].,.,.,.,.,.,.r l     ",
"    l r q d ^.f q q /.(._.:.<.X F  .[.}.|.x q q q q q q r l     ",
"    l r x d 1.f x 2.3.4.5.6.7.<.q 8.9.0.|.a.b.x x x x x r l     ",
"    l r c.D d.f e.%.f.g.g.g.h.i.j.k.g.g.g.l.%.m.g.g.g.g.r l     ",
"    l r n.o.1.p.q.'.0.0.0.0.0.0.0.0.0.0.0.0.^.r.s.5.0.0.r l     ",
"    l G t.=.u.v.p 5./././././././././././././.Y w.r.1./.r l     ",
"    l r x.y.z.A.B.Q Q Q Q Q Q Q Q Q Q Q Q Q Q Q Q c.C.c.r l     ",
"    D.G E.F.G.F.H.5.5.5.5.5.5.5.5.5.5.5.5.5.5.5.5.5.1.I.G D.    ",
"    D.J.G r r r r r r r r r r r r r r r r r r r r r r G K.L.    ",
"      F.M.M.M.M.M.M.M.M.M.M.M.M.M.M.M.M.M.M.M.M.M.M.M.M.N.      ",
"                                                                ",
"                                                                "};
